<?xml version="1.0" encoding="utf-8"?>
<!-- Generator: Adobe Illustrator 27.2.0, SVG Export Plug-In . SVG Version: 6.00 Build 0)  -->
<svg version="1.1" id="Laag_1" xmlns="http://www.w3.org/2000/svg" xmlns:xlink="http://www.w3.org/1999/xlink" x="0px" y="0px"
	 viewBox="0 0 5031.4 1071.8" style="enable-background:new 0 0 5031.4 1071.8;" xml:space="preserve">
<style type="text/css">
	.st0{fill:#FFFFFF;}
</style>
<g>
	<g>
		<path class="st0" d="M130,683.7l-117-117c-17.4-17.4-17.4-45.6,0-63l117-117c17.4-17.4,45.6-17.4,63,0l117,117
			c17.4,17.4,17.4,45.6,0,63l-117,117C175.6,701.1,147.4,701.1,130,683.7z"/>
		<path class="st0" d="M1091.9,535.9c0-0.2,0-0.3,0-0.5h0C1091.5,275,928.2,58.2,711.9,10C682.5,3.5,652.1,0,621,0H122.5v0
			c30.2,79.2,67.1,155.2,115.3,241.3c45.9,82,83.6,149.4,180.6,170c4.5,0.9,9,1.5,13.5,1.5l140.8,0.8c2.3,0,88.6,1.7,91.1,1.9
			c0.8,0.1,1.5,0.2,2.3,0.2c1.6,0.2,3.2,0.3,4.7,0.6c0.2,0,0.4,0.1,0.6,0.1c14.7,2.4,27.3,8.1,37.2,14.3
			c32.3,20.7,54.2,59.9,54.4,105.1C762.9,581,741,620.3,708.7,641c-10,6.2-22.5,11.9-37.2,14.3c-0.2,0-0.4,0.1-0.6,0.1
			c-1.5,0.2-3.1,0.4-4.7,0.6c-0.8,0.1-1.5,0.2-2.3,0.2c-2.4,0.2-88.8,1.9-91.1,1.9l-140.8,0.8c-4.5,0-9.1,0.5-13.5,1.5
			c-97.1,20.7-134.7,88-180.6,170c-48.2,86.2-85.1,162.2-115.3,241.3l0,0H621c31.1,0,61.5-3.5,90.9-10
			c216.3-48.2,379.5-265,379.9-525.3h0C1091.9,536.2,1091.9,536,1091.9,535.9z"/>
	</g>
	<g>
		<path class="st0" d="M1592.8,907.6c-46.7,0-88.4-11.5-124.9-34.5c-36.6-23-65.7-54.4-87.3-94.1c-21.6-39.7-32.4-84.3-32.4-133.8
			c0-50.2,10.8-95.1,32.4-134.9c21.6-39.7,50.7-71.1,87.3-94.1c36.6-23,78.2-34.5,124.9-34.5c36.2,0,69,7.5,98.3,22.5
			c29.3,15,52.8,35.4,70.6,61.2c17.8,25.8,27.3,55.1,28.8,87.8v179.8c-1.4,33.5-10.8,63.4-28.2,89.9c-17.4,26.5-40.8,47.2-70.1,62.2
			C1662.8,900.1,1629.7,907.6,1592.8,907.6z M1616.8,781c25.1,0,47.4-5.9,66.9-17.8c19.5-11.8,34.7-27.9,45.5-48.1
			c10.8-20.2,16.2-43.6,16.2-70.1c0-27.2-5.4-50.9-16.2-71.1c-10.8-20.2-25.8-36.2-45-48.1c-19.2-11.8-41.3-17.8-66.4-17.8
			c-25.8,0-48.3,5.8-67.4,17.3c-19.2,11.5-34.2,27.5-45,48.1c-10.8,20.6-16.2,44.1-16.2,70.6c0,27.2,5.4,51.1,16.2,71.6
			c10.8,20.6,26,36.6,45.5,48.1C1570.4,775.3,1592.4,781,1616.8,781z M1875.1,897.1h-138V761.2l23-123.4l-24-122.3V141.2h139.1
			V897.1z"/>
		<path class="st0" d="M2230.6,908.6c-50.9,0-96.7-11.7-137.5-35c-40.8-23.3-73-55.1-96.7-95.1c-23.7-40.1-35.5-85.2-35.5-135.4
			c0-49.5,11.8-93.9,35.5-133.3c23.7-39.4,55.9-70.7,96.7-94.1c40.8-23.3,86.6-35,137.5-35c51.6,0,97.8,11.5,138.5,34.5
			c40.8,23,73.2,54.4,97.2,94.1c24,39.7,36.1,84.4,36.1,133.8c0,49.5-11.9,94.5-35.5,134.9c-23.7,40.4-56.1,72.3-97.2,95.7
			C2328.5,896.9,2282.1,908.6,2230.6,908.6z M2230.6,780c25.8,0,48.6-5.9,68.5-17.8c19.9-11.8,35.2-27.9,46-48.1
			c10.8-20.2,16.2-43.6,16.2-70.1c0-26.5-5.7-49.8-17.3-70.1c-11.5-20.2-26.8-36.1-46-47.6c-19.2-11.5-41.7-17.3-67.4-17.3
			c-25.1,0-47.4,5.8-66.9,17.3c-19.5,11.5-34.7,27.4-45.5,47.6c-10.8,20.2-16.2,43.6-16.2,70.1c0,26.5,5.4,49.8,16.2,70.1
			c10.8,20.2,26,36.3,45.5,48.1C2183.1,774.1,2205.5,780,2230.6,780z"/>
		<path class="st0" d="M2738.7,897.1l-222.7-505h150.6l160,416.1h-74.2l160-416.1h146.4l-221.7,505H2738.7z"/>
		<path class="st0" d="M3348.3,908.6c-53,0-100.2-11.5-141.7-34.5c-41.5-23-74.1-54.4-97.8-94.1c-23.7-39.7-35.5-85-35.5-135.9
			c0-50.2,11.7-95.1,35-134.9c23.3-39.7,55.2-71.1,95.7-94.1c40.4-23,85.7-34.5,135.9-34.5c47.4,0,89.9,10.8,127.6,32.4
			c37.6,21.6,66.9,51.6,87.8,89.9c20.9,38.3,31.4,81.9,31.4,130.7c0,9.1-0.4,18.3-1,27.7c-0.7,9.4-2.5,19.7-5.2,30.8l-425.6,1V590.7
			l361.8-1l-56.5,42.9c-0.7-30-5.9-55.1-15.7-75.3c-9.8-20.2-23.4-35.5-40.8-46c-17.4-10.5-39-15.7-64.8-15.7
			c-27.2,0-50.9,5.9-71.1,17.8c-20.2,11.9-35.7,28.8-46.5,50.7c-10.8,22-16.2,47.9-16.2,77.9c0,30.7,5.8,57.3,17.3,80
			c11.5,22.7,28,39.9,49.7,51.8c21.6,11.9,46.7,17.8,75.3,17.8c25.8,0,49.1-4.2,70.1-12.5s39-21.6,54.4-39.7l81.6,81.6
			c-25.8,29.3-56.1,51.2-91,65.9C3427.4,901.3,3389.4,908.6,3348.3,908.6z"/>
		<path class="st0" d="M3672.4,897.1v-505h137v505H3672.4z M4011.2,897.1V607.5c0-30-9.4-54.4-28.2-73.2
			c-18.8-18.8-42.9-28.2-72.1-28.2c-19.5,0-37,4.2-52.3,12.5c-15.3,8.4-27.4,20.4-36.1,36.1c-8.7,15.7-13.1,33.3-13.1,52.8
			l-53.3-28.2c0-39,8.5-73.4,25.6-103c17.1-29.6,40.8-52.8,71.1-69.5c30.3-16.7,64.6-25.1,103-25.1c37.6,0,70.9,9.2,99.9,27.7
			c28.9,18.5,51.8,42.5,68.5,72.1c16.7,29.6,25.1,61.2,25.1,94.6v321H4011.2z"/>
		<path class="st0" d="M4472.3,907.6c-46.7,0-88.4-11.5-124.9-34.5c-36.6-23-65.7-54.4-87.3-94.1c-21.6-39.7-32.4-84.3-32.4-133.8
			c0-50.2,10.8-95.1,32.4-134.9c21.6-39.7,50.7-71.1,87.3-94.1c36.6-23,78.2-34.5,124.9-34.5c36.2,0,69,7.5,98.3,22.5
			c29.3,15,52.8,35.4,70.6,61.2c17.8,25.8,27.3,55.1,28.8,87.8v179.8c-1.4,33.5-10.8,63.4-28.2,89.9c-17.4,26.5-40.8,47.2-70.1,62.2
			C4542.3,900.1,4509.2,907.6,4472.3,907.6z M4496.3,781c25.1,0,47.4-5.9,66.9-17.8c19.5-11.8,34.7-27.9,45.5-48.1
			c10.8-20.2,16.2-43.6,16.2-70.1c0-27.2-5.4-50.9-16.2-71.1c-10.8-20.2-25.8-36.2-45-48.1c-19.2-11.8-41.3-17.8-66.4-17.8
			c-25.8,0-48.3,5.8-67.4,17.3c-19.2,11.5-34.2,27.5-45,48.1c-10.8,20.6-16.2,44.1-16.2,70.6c0,27.2,5.4,51.1,16.2,71.6
			c10.8,20.6,26,36.6,45.5,48.1C4449.9,775.3,4471.9,781,4496.3,781z M4754.6,897.1h-138V761.2l23-123.4l-24.1-122.3V141.2h139.1
			V897.1z"/>
		<g>
			<rect x="4872.7" y="392.1" class="st0" width="139.1" height="505"/>
			<path class="st0" d="M4925.1,311.8l-64.4-64.4c-9.6-9.6-9.6-25.1,0-34.7l64.4-64.4c9.6-9.6,25.1-9.6,34.7,0l64.4,64.4
				c9.6,9.6,9.6,25.1,0,34.7l-64.4,64.4C4950.3,321.4,4934.7,321.4,4925.1,311.8z"/>
		</g>
	</g>
</g>
</svg>
