<svg xmlns="http://www.w3.org/2000/svg" width="382" height="277.83" viewBox="0 0 382 277.83"><circle cx="12.963" cy="12.963" r="12.963" transform="translate(209.551 23.052)" fill="#f2f2f2"/><path d="M551.925,422.074c19.268-14.676,28.471-39.338,22.71-62.863q-.215-.877-.453-1.75c-3.82-13.965-13.269-27.237-27.042-31.7-11.564-3.747-24.187-.866-36.252-2.355-23.683-2.925-42.044-22.087-54.964-42.151s-22.849-42.522-40.016-59.1c-28.3-27.322-74.457-33.2-109.541-15.42s-57.433,57.24-56.48,96.563,24.3,76.918,58.2,96.865c12.454,7.328,26.858,12.519,41.194,10.7,12.439-1.576,23.74-8.26,36.12-10.244,19.464-3.12,38.8,5.681,55.639,15.936s33.1,22.411,52.227,27.165C511.843,448.344,534.856,435.075,551.925,422.074Z" transform="translate(-228.851 -180.708)" fill="#aaa"/><path d="M591.522,190.729c-.422-.282-.85-.549-1.272-.82a184.607,184.607,0,0,0-38.99-18.9l-3.175,43.8H527.955v-50.2c-1.267-.262-2.544-.51-3.821-.743V214.81H500.214a49.652,49.652,0,0,1-49.652-49.652h0c-1.282.277-2.554.573-3.826.888V214.81H427.253l-3.025-41.767a184.906,184.906,0,0,0-39.782,21.134c-.214.146-.427.3-.636.442-1.073.753-2.131,1.52-3.185,2.3v167.1h57.42l-1.015-14.055-5.583-77.17H543.885l-5.583,77.17-1.015,14.055h56.784v-171.6Q592.8,191.559,591.522,190.729ZM446.736,260.048H430.526l-3-41.413h19.206Zm77.4,0H496.908v-.82a3,3,0,0,0-3.005-3H482.066a3,3,0,0,0-3,3v.82h-28.5V218.635h73.572Zm3.821,0V218.635h19.852l-3,41.413Z" transform="translate(-296.132 -163.871)" fill="#0f161a"/><path d="M206.59,598.162a140.307,140.307,0,0,0,13.652,14.055l354.7.486a140.313,140.313,0,0,0,13.652-14.055Z" transform="translate(-206.59 -387.314)" fill="#0f161a"/><path d="M702.02,503.345v41.609a2,2,0,0,0,2,2h61.66a2,2,0,0,0,2-2V503.345a2,2,0,0,0-2-2H704.02a2,2,0,0,0-2,2Z" transform="translate(-461.489 -337.503)" fill="#0c1215"/><path d="M705,505.394v40.578a1.071,1.071,0,0,0,1.069,1.069H766.7a1.071,1.071,0,0,0,1.069-1.069V505.394a1.071,1.071,0,0,0-1.069-1.071H706.068A1.071,1.071,0,0,0,705,505.394Z" transform="translate(-463.022 -339.034)" fill="#d6c545"/><path d="M699.074,600.627a1.2,1.2,0,0,0,.944.451h66.024a1.215,1.215,0,0,0,1.188-1.464l-1.025-4.868a1.217,1.217,0,0,0-.756-.883,1.175,1.175,0,0,0-.431-.081H701.039a1.176,1.176,0,0,0-.431.081,1.217,1.217,0,0,0-.756.883l-1.025,4.868a1.214,1.214,0,0,0,.248,1.013Z" transform="translate(-459.833 -385.061)" fill="#0c1215"/><rect width="2.034" height="1.22" rx="0.488" transform="translate(304.715 210.818) rotate(180)" fill="#0f161a"/><rect width="2.034" height="1.22" rx="0.488" transform="translate(300.648 210.818) rotate(180)" fill="#0f161a"/><rect width="2.034" height="1.22" rx="0.488" transform="translate(296.581 210.818) rotate(180)" fill="#0f161a"/><rect width="2.034" height="1.22" rx="0.488" transform="translate(292.514 210.818) rotate(180)" fill="#0f161a"/><rect width="2.034" height="1.22" rx="0.488" transform="translate(288.446 210.818) rotate(180)" fill="#0f161a"/><rect width="2.034" height="1.22" rx="0.488" transform="translate(284.38 210.818) rotate(180)" fill="#0f161a"/><rect width="2.034" height="1.22" rx="0.488" transform="translate(280.312 210.818) rotate(180)" fill="#3f3d56"/><rect width="2.034" height="1.22" rx="0.488" transform="translate(276.245 210.818) rotate(180)" fill="#3f3d56"/><rect width="2.034" height="1.22" rx="0.488" transform="translate(272.178 210.818) rotate(180)" fill="#3f3d56"/><rect width="2.034" height="1.22" rx="0.488" transform="translate(268.111 210.818) rotate(180)" fill="#3f3d56"/><rect width="2.034" height="1.22" rx="0.488" transform="translate(264.044 210.818) rotate(180)" fill="#3f3d56"/><rect width="2.034" height="1.22" rx="0.488" transform="translate(259.977 210.818) rotate(180)" fill="#0f161a"/><rect width="2.034" height="1.22" rx="0.488" transform="translate(255.91 210.818) rotate(180)" fill="#0f161a"/><rect width="2.034" height="1.22" rx="0.488" transform="translate(251.843 210.818) rotate(180)" fill="#0f161a"/><rect width="2.034" height="1.22" rx="0.488" transform="translate(247.776 210.818) rotate(180)" fill="#0f161a"/><rect width="2.034" height="1.22" rx="0.488" transform="translate(243.709 210.818) rotate(180)" fill="#3f3d56"/><rect width="2.034" height="1.22" rx="0.488" transform="translate(304.763 212.852) rotate(180)" fill="#0f161a"/><rect width="2.034" height="1.22" rx="0.488" transform="translate(300.696 212.852) rotate(180)" fill="#0f161a"/><rect width="2.034" height="1.22" rx="0.488" transform="translate(296.629 212.852) rotate(180)" fill="#0f161a"/><rect width="2.034" height="1.22" rx="0.488" transform="translate(292.562 212.852) rotate(180)" fill="#0f161a"/><rect width="2.034" height="1.22" rx="0.488" transform="translate(288.495 212.852) rotate(180)" fill="#0f161a"/><rect width="2.034" height="1.22" rx="0.488" transform="translate(284.428 212.852) rotate(180)" fill="#0f161a"/><rect width="2.034" height="1.22" rx="0.488" transform="translate(280.361 212.852) rotate(180)" fill="#3f3d56"/><rect width="2.034" height="1.22" rx="0.488" transform="translate(276.294 212.852) rotate(180)" fill="#3f3d56"/><rect width="2.034" height="1.22" rx="0.488" transform="translate(272.226 212.852) rotate(180)" fill="#3f3d56"/><rect width="2.034" height="1.22" rx="0.488" transform="translate(268.16 212.852) rotate(180)" fill="#3f3d56"/><rect width="2.034" height="1.22" rx="0.488" transform="translate(264.092 212.852) rotate(180)" fill="#3f3d56"/><rect width="2.034" height="1.22" rx="0.488" transform="translate(260.025 212.852) rotate(180)" fill="#0f161a"/><rect width="2.034" height="1.22" rx="0.488" transform="translate(255.958 212.852) rotate(180)" fill="#0f161a"/><rect width="2.034" height="1.22" rx="0.488" transform="translate(251.891 212.852) rotate(180)" fill="#0f161a"/><rect width="2.034" height="1.22" rx="0.488" transform="translate(247.824 212.852) rotate(180)" fill="#0f161a"/><rect width="2.034" height="1.22" rx="0.488" transform="translate(243.757 212.852) rotate(180)" fill="#3f3d56"/><rect width="16.268" height="1.22" rx="0.488" transform="translate(285.241 215.292) rotate(180)" fill="#0f161a"/><rect width="2.896" height="1.516" rx="0.758" transform="translate(250.338 174.166)" fill="#fff"/><rect width="2.896" height="1.516" rx="0.758" transform="translate(266.128 174.166)" fill="#fff"/><rect width="2.896" height="1.516" rx="0.758" transform="translate(270.602 174.166)" fill="#fff"/><rect width="10.096" height="1.516" rx="0.758" transform="translate(254.633 174.04)" fill="#fff"/><rect width="10.096" height="1.516" rx="0.758" transform="translate(275.686 174.04)" fill="#fff"/><rect width="2.896" height="1.516" rx="0.758" transform="translate(254.549 177.587)" fill="#fff"/><rect width="2.896" height="1.516" rx="0.758" transform="translate(270.339 177.587)" fill="#fff"/><rect width="2.896" height="1.516" rx="0.758" transform="translate(274.812 177.587)" fill="#fff"/><rect width="10.096" height="1.516" rx="0.758" transform="translate(258.844 177.461)" fill="#fff"/><rect width="10.096" height="1.516" rx="0.758" transform="translate(279.897 177.461)" fill="#fff"/><rect width="2.896" height="1.516" rx="0.758" transform="translate(258.759 181.009)" fill="#fff"/><rect width="2.896" height="1.516" rx="0.758" transform="translate(274.549 181.009)" fill="#fff"/><rect width="2.896" height="1.516" rx="0.758" transform="translate(279.023 181.009)" fill="#fff"/><rect width="10.096" height="1.516" rx="0.758" transform="translate(263.054 180.882)" fill="#fff"/><rect width="10.096" height="1.516" rx="0.758" transform="translate(284.107 180.882)" fill="#fff"/><rect width="2.896" height="1.516" rx="0.758" transform="translate(262.97 184.43)" fill="#fff"/><rect width="2.896" height="1.516" rx="0.758" transform="translate(278.76 184.43)" fill="#fff"/><rect width="2.896" height="1.516" rx="0.758" transform="translate(283.234 184.43)" fill="#fff"/><rect width="10.096" height="1.516" rx="0.758" transform="translate(267.265 184.303)" fill="#fff"/><rect width="2.896" height="1.516" rx="0.758" transform="translate(266.128 198.034)" fill="#fff"/><rect width="2.896" height="1.516" rx="0.758" transform="translate(270.602 198.034)" fill="#fff"/><rect width="10.096" height="1.516" rx="0.758" transform="translate(275.686 198.16)" fill="#fff"/><rect width="2.896" height="1.516" rx="0.758" transform="translate(250.338 198.034)" fill="#fff"/><rect width="10.096" height="1.516" rx="0.758" transform="translate(254.633 198.16)" fill="#fff"/><rect width="2.896" height="1.516" rx="0.758" transform="translate(254.549 194.613)" fill="#fff"/><rect width="2.896" height="1.516" rx="0.758" transform="translate(270.339 194.613)" fill="#fff"/><rect width="2.896" height="1.516" rx="0.758" transform="translate(274.812 194.613)" fill="#fff"/><rect width="10.096" height="1.516" rx="0.758" transform="translate(258.844 194.739)" fill="#fff"/><rect width="2.896" height="1.516" rx="0.758" transform="translate(258.759 191.191)" fill="#fff"/><rect width="2.896" height="1.516" rx="0.758" transform="translate(274.549 191.191)" fill="#fff"/><rect width="2.896" height="1.516" rx="0.758" transform="translate(279.023 191.191)" fill="#fff"/><rect width="10.096" height="1.516" rx="0.758" transform="translate(263.054 191.318)" fill="#fff"/><rect width="2.896" height="1.516" rx="0.758" transform="translate(262.97 187.77)" fill="#fff"/><rect width="2.896" height="1.516" rx="0.758" transform="translate(278.76 187.77)" fill="#fff"/><rect width="2.896" height="1.516" rx="0.758" transform="translate(283.234 187.77)" fill="#fff"/><rect width="10.096" height="1.516" rx="0.758" transform="translate(267.265 187.897)" fill="#fff"/><path d="M704.639,613.2l-6.481-10.245L718.5,586.737l8.4-9.3a9.3,9.3,0,0,1,15.739,3.315h0A9.3,9.3,0,0,1,737.02,592.4l-13.278,4.892Z" transform="translate(-459.502 -375.07)" fill="#ffb6b6"/><path d="M398.28,499.572v49.793h34.883V499.572a1.674,1.674,0,0,0-1.18-1.6,1.541,1.541,0,0,0-.5-.078H399.965A1.681,1.681,0,0,0,398.28,499.572Zm13.613,17.109a3.724,3.724,0,1,1,7.448,0v5.777a3.724,3.724,0,0,1-7.448,0Z" transform="translate(-305.215 -335.725)" fill="#0c1215"/><path d="M398.06,600.632v4.8a.945.945,0,0,0,.937.942H432.22a.942.942,0,0,0,.937-.942v-4.8Z" transform="translate(-305.102 -388.585)" fill="#3f3d56"/><path d="M285.25,342.207v90.914a4.373,4.373,0,0,0,4.37,4.37H424.345a4.373,4.373,0,0,0,4.37-4.369V342.207a4.375,4.375,0,0,0-4.37-4.365H289.62A4.375,4.375,0,0,0,285.25,342.207Z" transform="translate(-247.061 -253.379)" fill="#0c1215"/><path d="M291.76,346.682v88.662a2.339,2.339,0,0,0,2.335,2.335H426.573a2.339,2.339,0,0,0,2.335-2.335V346.682a2.34,2.34,0,0,0-2.335-2.34H294.1A2.34,2.34,0,0,0,291.76,346.682Z" transform="translate(-250.41 -256.724)" fill="#fff"/><path d="M342.054,603.133a1.431,1.431,0,0,0,1.126.539H422a1.45,1.45,0,0,0,1.418-1.748l-1.223-5.811a1.453,1.453,0,0,0-.9-1.053,1.4,1.4,0,0,0-.515-.1H344.4a1.406,1.406,0,0,0-.515.1,1.453,1.453,0,0,0-.9,1.054l-1.223,5.811A1.449,1.449,0,0,0,342.054,603.133Z" transform="translate(-276.119 -385.668)" fill="#0c1215"/><path d="M428.7,368.454H304.739a.493.493,0,1,1,0-.986H428.7a.493.493,0,1,1,0,.986Z" transform="translate(-256.834 -268.622)" fill="#0f161a"/><ellipse cx="2.889" cy="2.953" rx="2.889" ry="2.953" transform="translate(53.454 90.422)" fill="#0f161a"/><ellipse cx="2.889" cy="2.953" rx="2.889" ry="2.953" transform="translate(63.434 90.422)" fill="#0f161a"/><ellipse cx="2.889" cy="2.953" rx="2.889" ry="2.953" transform="translate(73.414 90.422)" fill="#0f161a"/><path d="M540.139,351.622h-7.088a.537.537,0,0,0,0,1.073h7.088a.536.536,0,1,0,0-1.073Z" transform="translate(-374.285 -260.469)" fill="#0f161a"/><path d="M540.126,355.772h-7.088a.537.537,0,1,0,0,1.073h7.088a.536.536,0,1,0,0-1.073Z" transform="translate(-374.272 -262.604)" fill="#0f161a"/><path d="M540.139,359.922h-7.088a.537.537,0,0,0,0,1.073h7.088a.536.536,0,1,0,0-1.073Z" transform="translate(-374.285 -264.74)" fill="#0f161a"/><path d="M896.375,573.349a3.115,3.115,0,0,0,3,2.1l12.862-.331a3.073,3.073,0,0,0,2.9-2.261l1.82-19.462a4.754,4.754,0,0,0,2.057.423,4.691,4.691,0,0,0-.235-9.378,3.976,3.976,0,0,0-.843.088,3.179,3.179,0,0,0-2.366-1.021l-19.784.511a2.829,2.829,0,0,0-.488.061,3.09,3.09,0,0,0-2.366,4.013Zm20.961-21.273,1.3-4.638a3.159,3.159,0,0,0,.01-1.638c.063,0,.118-.03.181-.03a3.355,3.355,0,1,1,.157,6.708A3.158,3.158,0,0,1,917.336,552.076Z" transform="translate(-559.635 -359.195)" fill="#0c1215"/><path d="M897.978,544.08c.422,2.41,5.16,4.1,10.859,3.81,5.24-.241,9.524-2.081,10.309-4.262a2.927,2.927,0,0,0-.9-.119l-19.784.511A2.829,2.829,0,0,0,897.978,544.08Z" transform="translate(-562.31 -359.195)" fill="#0f161a"/><path d="M922.057,578.485a.242.242,0,0,0,.073-.032l2.793-1.828a.242.242,0,0,0,0-.406l-2.9-1.9a.243.243,0,1,0-.266.406l2.593,1.7-2.483,1.625a.243.243,0,0,0,.192.438Z" transform="translate(-574.487 -375.026)" fill="#d6c545"/><path d="M910.018,578.9a.243.243,0,0,0,.061-.446l-2.575-1.476,2.489-1.848a.243.243,0,1,0-.289-.389l-2.786,2.069a.243.243,0,0,0,.024.405l2.9,1.66A.243.243,0,0,0,910.018,578.9Z" transform="translate(-566.859 -375.241)" fill="#d6c545"/><path d="M917.406,578.839a.229.229,0,0,0,.067-.028.242.242,0,0,0,.081-.334l-3.959-6.51a.243.243,0,0,0-.415.253l3.959,6.51A.243.243,0,0,0,917.406,578.839Z" transform="translate(-570.113 -373.777)" fill="#d6c545"/><rect width="24.624" height="5.266" rx="2.633" transform="translate(101.656 126.631)" fill="#d6c545"/><rect width="49.636" height="5.266" rx="2.633" transform="translate(89.15 137.162)" fill="#0f161a"/><rect width="49.636" height="5.266" rx="2.633" transform="translate(89.15 147.693)" fill="#0f161a"/><path d="M497.3,512.134l.105.332.006.011,3.168,9.631,3.644,11.1,6.857,20.858.066,3.24v.011l.51,26.064-1.412,3.534,1.589,5.793s-.731-8.757-4.652-3.728c-2.221,2.858-4.818,5.782-6.951,8.524q4.661,1.886,9.471,3.412c.692.222,1.39.432,2.088.642l.449.133a129.56,129.56,0,0,0,32.7,5.256c.576.017,1.141.028,1.689.039.194.006.382.011.57.011.62.006,1.235.011,1.855.011q1.878,0,3.738-.055a129.557,129.557,0,0,0,27.232-3.683c-.061-3.683-.227-7.986-.465-12.583-.111-2.254-2.6-4.7-2.747-7.056-.105-1.772,2.127-3.439,2.01-5.239-.753-11.082-1.695-6.828-2.393-14.676q-.108-1.155-.2-2.21c-.449-5.04-.759-8.191-.759-8.191l2.98-18.781,4.68-29.486-.36-.593-.4-.2-24.685-12.218-1.34-3.434a5.33,5.33,0,0,0-4.924-3.373l-16.261-.066a5.307,5.307,0,0,0-4.326,2.2l-4.4,6.1Z" transform="translate(-356.161 -329.175)" fill="#0f161a"/><path d="M496.818,569.45l-3.683,7.881-2.514,5.383-4.326,22.647-2.166,2.3-1.855-8.137-19.419,4.312a16.53,16.53,0,0,1-.564-3.763c.111-.111.227-.222.343-.332.31-.288.57-.559.565-.82-.222-13.392.443-36.182,5.993-49.99a29.155,29.155,0,0,1,3.412-6.364c.111-.15.216-.3.321-.449,2.559-3.583,4.176-7.111,6.469-9.62v-.006a.255.255,0,0,0,.039-.039.077.077,0,0,0,.022-.017l15.751-8.352.676,18.986.482,13.647Z" transform="translate(-338.149 -349.201)" fill="#0f161a"/><path d="M650.391,571.893l4.6,9.844,1.606,3.428,4.324,22.644,2.158,2.293,1.86-8.135.874-.179,15.759-3.264,4.593,14.587a8.731,8.731,0,0,0-1.583-10.926c-.314-.284-.575-.56-.568-.821.261-15.751-.7-44.512-9.4-56.35-2.763-3.757-4.421-7.5-6.834-10.112-.007-.007-.007-.015-.015-.015l-5.87-9.612-.358-.59-.4-.2Z" transform="translate(-434.926 -349.407)" fill="#0f161a"/><circle cx="21.633" cy="21.633" r="21.633" transform="translate(165.962 108.092)" fill="#ffb6b6"/><path d="M596.444,382.146a1.825,1.825,0,0,0-1.306-.578l.325-.9a1.713,1.713,0,0,0-1.923-2.282l-1.185.228.112-.791a1.716,1.716,0,0,0-2.3-1.855,1.829,1.829,0,0,1-1.573-.112,1.868,1.868,0,0,1-.932-1.267l-.413-1.991-.044-.107c-2.01-3.35-5.875-5.787-10.6-6.68-4.209-.8-8.525-.393-12.686-.01a11.6,11.6,0,0,0-5.069,1.282,4.433,4.433,0,0,0-2.209,4.093c-4.1-1.257-8.5,1.253-10.681,4.418-2.583,3.767-3.005,8.487-3.073,12.176-.184,8.729,1.617,15.871,5.341,21.231.272.388.34,1.2.879,1.471l-.112-.18c.6.3,1.214.786.986,1.306-.655,1.5,3.7,4.8,6.768,5.894,5.6,2,13.04,1.825,18.274,1.107l.184-1.238c1.889-.257,3.219-.748,3.593-1.515.66-.563,1.223-1.068,1.714-1.534l0,0c.01-.01.029-.024.039-.034,2.364-2.267,2.913-3.559,3.161-5.525a15.849,15.849,0,0,0-.617-5.646c9.1,1.408-3.583-9.691,4.894-11.836a2.633,2.633,0,0,1,.3-.073c.248-.058.5-.117.733-.185a12.839,12.839,0,0,0,3.262-1.393c2.369-1.442,3.151-3.355,4.374-5.51A1.664,1.664,0,0,0,596.444,382.146Z" transform="translate(-379.609 -267.531)" fill="#0f161a"/><path d="M599.622,592.238c0,.85-.015,2.039-.053,3.51q-.007.306-.015.626c-.063,2.7-.126,4.971-.228,7.491,0,.175-.01.345-.019.519-.136,3.515-.35,7.608-.719,14.089-.685,11.972-1.879,1.646-3.078,5.845-.058.209-.121.456-.18.748a13.556,13.556,0,0,1-.913,3.073c-.636.379-1.291.743-1.937,1.107-1.84,1.024-3.709,2.01-5.593,2.947-1.058.524-2.122,1.039-3.19,1.534-.17.078-.335.155-.5.228a131.512,131.512,0,0,1-16.871,6.438c-1.126.34-2.248.67-3.384.976-1.185.33-2.369.641-3.568.932a129.576,129.576,0,0,1-27.232,3.685c-1.238.039-2.486.053-3.738.053-.621,0-1.233,0-1.855-.01-.189,0-.379,0-.568-.01-.549-.015-1.117-.024-1.69-.039a129.465,129.465,0,0,1-32.7-5.258l-.452-.131c-.7-.214-1.393-.422-2.088-.646q-4.806-1.522-9.472-3.408-3.561-1.435-7.04-3.078a.165.165,0,0,1-.058-.029c-.486-.223-.976-.456-1.461-.694-.063-.034-.131-.068-.2-.1q-2.716-1.325-5.374-2.777c-1.491-3.423-3.588-4.078-4.889-7.088a12.562,12.562,0,0,1-.816-2.787c0-.01,0-.019,0-.034.136,1.806-.578-3.2,0-.019,0-.058-.01-.121-.015-.194-.015-.175-.034-.388-.063-.655-1.665-16.259-1.558-34.854-2.282-50.176q-.073-1.486-.151-2.845c-.015-.3-.034-.6-.053-.888.034-.087.073-.18.117-.267a.482.482,0,0,1,.034-.073.789.789,0,0,1,.049-.087l.034-.048a.445.445,0,0,1,.024-.049c.044-.068.092-.141.146-.209.024-.029.044-.053.068-.078a.4.4,0,0,1,.058-.068.309.309,0,0,1,.053-.063c.019-.019.039-.044.063-.068a.147.147,0,0,1,.039-.039.993.993,0,0,1,.126-.121,4.67,4.67,0,0,1,.553-.437c.068-.044.141-.087.209-.136a9.287,9.287,0,0,1,1.539-.738c.184-.068.369-.131.568-.2.073-.019.141-.044.214-.068.107-.034.214-.068.325-.092.553-.165,1.151-.306,1.8-.437.078-.015.16-.029.243-.049.117-.024.238-.044.359-.063l.5-.087c1.442-.228,3.078-.4,4.884-.51l.51-.029.6-.029c.17-.01.345-.015.519-.019s.345-.015.524-.019c.49-.015,1-.029,1.51-.039,1.466-.029,3.01-.019,4.632.015.753.019,1.52.039,2.306.073.053,0,.1,0,.15,0,.685.024,1.374.053,2.083.092.5.024,1,.049,1.5.078.471.029.947.058,1.427.092.374.019.748.049,1.126.073.32.024.641.049.961.068l.437.029c.238.019.476.034.719.058l1.612.131,1.636.146c.549.049,1.1.1,1.656.155l.165.015c.5.053,1.01.1,1.52.155.116.01.238.019.354.034.486.049.982.106,1.472.158l.451.048c.384.042.763.078,1.15.124.51.058,1.029.112,1.534.18.393.044.786.087,1.18.136.617.073,1.243.15,1.869.233.238.029.476.058.714.092,1.787.223,3.593.471,5.428.728,2.782.393,5.608.82,8.453,1.282s5.716.948,8.6,1.461c.728.131,1.456.262,2.19.4l.99.189c.563.1,1.126.209,1.69.316s1.126.214,1.689.325l2.015.393c4.413.874,8.8,1.806,13.084,2.782.7.16,1.408.325,2.107.486q2.1.488,4.156.99c.379.087.753.18,1.126.272.932.233,1.864.466,2.782.7l.16.044c.675.165,1.335.335,2,.51q2.338.612,4.6,1.238,1.5.415,2.966.84c1.461.422,2.894.85,4.287,1.282.345.107.689.214,1.029.316,1.02.316,2.025.636,3,.956.777.253,1.534.51,2.282.767s1.481.515,2.2.772c.461.165.918.34,1.374.5.655.243,1.3.485,1.932.728.194.073.383.15.573.223.121.053.238.1.354.146.228.092.461.18.685.272s.451.18.675.277.442.18.655.272.432.18.646.277c.18.073.354.15.524.228.345.151.689.3,1.024.456.165.078.33.15.5.228l.379.175c.053.029.107.053.16.078l.369.18c.282.131.558.272.83.4.364.185.719.369,1.058.549s.68.369,1,.549l.155.087c.073.039.146.083.218.121.248.141.486.286.723.427.466.286.908.568,1.32.85.092.063.18.126.272.184.306.219.6.432.869.651,0,0,0,0,0,0,.092.068.18.141.267.209s.151.126.223.194c.253.218.486.427.7.641a2.764,2.764,0,0,1,.2.209.584.584,0,0,1,.078.078c.1.1.185.194.267.291a.27.27,0,0,1,.034.044c.117.136.223.272.325.408.049.068.1.136.146.2s.116.17.165.253.083.141.121.209a3.533,3.533,0,0,1,.262.549,2.546,2.546,0,0,1,.131.4A2.835,2.835,0,0,1,599.622,592.238Z" transform="translate(-335.515 -368.211)" fill="#0f161a"/><path d="M599.617,592.242c0,.85-.015,2.039-.053,3.51,0,.2-.015.413-.019.626-.049,2.063-.121,4.612-.223,7.491,0,.175-.01.345-.019.519-.136,3.515-.35,7.608-.719,14.089-.685,11.972-1.879,1.646-3.078,5.845-3.331-2.049-6.981-4.195-10.885-6.4q-1.056-.6-2.131-1.2c-7.807-4.355-16.526-8.919-25.629-13.439-.359-.18-.723-.359-1.083-.534-20.852-10.307-43.612-20.333-62.052-27.023-3.559-1.291-6.957-2.457-10.152-3.481a112.763,112.763,0,0,0-17.022-4.306c-4.661-.68-7.88-.437-9.181.966q-.073-1.486-.15-2.845-.029-.452-.058-.888c.03-.08.069-.156.107-.233.005-.011.009-.023.015-.034a.485.485,0,0,1,.034-.073.8.8,0,0,1,.049-.087.517.517,0,0,1,.058-.1c.044-.068.092-.141.146-.209a1.69,1.69,0,0,1,.126-.146.31.31,0,0,1,.053-.063c.019-.019.039-.044.063-.068a.147.147,0,0,1,.039-.039.991.991,0,0,1,.126-.121,4.672,4.672,0,0,1,.553-.437c.068-.044.141-.087.209-.136a9.288,9.288,0,0,1,1.539-.738c.185-.068.369-.131.568-.2.073-.019.141-.044.214-.068.107-.034.214-.068.325-.092.553-.165,1.151-.306,1.8-.437.194-.039.4-.078.6-.112l.5-.087c1.442-.228,3.078-.4,4.884-.51l.51-.029.6-.029c.17-.01.345-.015.519-.019s.345-.015.524-.019c.49-.015,1-.029,1.51-.039,1.466-.024,3.01-.015,4.632.019.753.015,1.52.039,2.306.073.049,0,.1,0,.15,0,.685.019,1.379.053,2.083.087.5.024,1,.049,1.5.078.471.029.947.058,1.427.092.374.019.748.049,1.126.073.32.024.641.049.961.068l1.155.087,1.612.131,1.636.146c.549.049,1.1.1,1.656.155l.165.015c.5.053,1.01.1,1.52.155q4.238.43,8.724,1,2.68.342,5.428.733c2.782.393,5.608.82,8.453,1.277s5.716.948,8.6,1.461c.728.131,1.456.262,2.19.4q1.34.248,2.68.5c.563.107,1.126.214,1.69.325l2.015.393c4.413.874,8.8,1.806,13.084,2.782.7.16,1.408.325,2.107.486q2.1.488,4.156.99l1.126.277q1.406.35,2.782.7v0c.053.01.107.024.16.039.67.17,1.335.34,2,.515q2.338.612,4.6,1.233c1,.282,1.991.558,2.966.84,1.461.427,2.894.854,4.287,1.282.345.107.689.214,1.029.316q1.529.481,3,.956c.777.252,1.534.51,2.282.767s1.481.515,2.2.772c.466.165.922.335,1.374.5.66.243,1.3.486,1.932.733.194.073.383.151.573.223.354.136.7.277,1.039.418.228.087.452.18.675.277s.442.18.655.272.432.18.646.277c.18.073.354.151.524.228.345.151.689.3,1.024.456.165.078.33.151.5.228l.379.175c.053.029.107.053.16.078.413.194.811.388,1.2.583.364.184.719.369,1.058.549.4.214.787.422,1.156.636.073.039.146.083.219.121.248.141.485.286.723.427.466.286.908.568,1.32.85s.786.558,1.141.835c0,0,0,0,0,0,.17.136.335.272.49.4.252.219.485.427.7.641a2.764,2.764,0,0,1,.2.209.587.587,0,0,1,.078.078c.1.112.2.223.3.335.117.136.223.272.325.408.049.068.1.136.146.2s.117.17.165.252.083.141.121.209a3.522,3.522,0,0,1,.262.549,2.93,2.93,0,0,1,.131.4,2.831,2.831,0,0,1,.083.393Z" transform="translate(-335.51 -368.215)" opacity="0.2"/></svg>