<svg xmlns="http://www.w3.org/2000/svg" width="255" height="50.076" viewBox="0 0 255 50.076"><g transform="translate(-133 -87.462)"><path d="M35.243,37.314a.852.852,0,0,0,.064-.1.888.888,0,0,0,.049-.239c0-.026.014-.05.015-.076,0-.009,0-.016,0-.025V.9a.9.9,0,0,0-.9-.9H6.6A3.6,3.6,0,0,0,3,3.6V39.57a3.6,3.6,0,0,0,3.6,3.6H34.476a.9.9,0,0,0,.748-1.4,3.954,3.954,0,0,1,0-4.4C35.236,37.354,35.233,37.332,35.243,37.314ZM12.893,13.49a.9.9,0,0,1,.9-.9h2.7v-2.7a.9.9,0,0,1,.9-.9h3.6a.9.9,0,0,1,.9.9v2.7h2.7a.9.9,0,0,1,.9.9v3.6a.9.9,0,0,1-.9.9h-2.7v9.893a.9.9,0,0,1-.9.9h-3.6a.9.9,0,0,1-.9-.9V17.986h-2.7a.9.9,0,0,1-.9-.9ZM33.046,41.369H6.6a1.8,1.8,0,1,1,0-3.6H33.046A5.726,5.726,0,0,0,33.046,41.369Z" transform="matrix(0.966, -0.259, 0.259, 0.966, 130.102, 96.618)" fill="#eee5e2"/><text transform="translate(189 89)" fill="#fff" font-size="16" font-family="Montserrat-MediumItalic, Montserrat" font-weight="500" font-style="italic"><tspan x="0" y="15">Bijbelse overdenkingen </tspan><tspan x="0" y="41">&amp; Family Life on Wheels</tspan></text></g></svg>