<svg xmlns="http://www.w3.org/2000/svg" width="30" height="30" viewBox="0 0 30 30"><path d="M15.039,7.715A7.221,7.221,0,0,0,9.1,19.031l-.727,2.66,2.727-.716a7.216,7.216,0,0,0,11.141-6.046A7.205,7.205,0,0,0,15.039,7.715Zm4.24,10.305a2.23,2.23,0,0,1-1.463,1.03,2.964,2.964,0,0,1-1.365-.086,12.58,12.58,0,0,1-1.235-.456,9.669,9.669,0,0,1-3.7-3.271A4.213,4.213,0,0,1,10.63,13a2.428,2.428,0,0,1,.759-1.807.8.8,0,0,1,.577-.271l.415.007c.133.006.311-.05.488.373s.614,1.5.668,1.609a.4.4,0,0,1,.017.38,1.5,1.5,0,0,1-.216.361l-.325.38c-.109.108-.221.225-.1.443a6.529,6.529,0,0,0,1.2,1.5,5.881,5.881,0,0,0,1.743,1.075c.216.107.343.09.47-.054s.541-.632.686-.85.289-.181.488-.109,1.264.6,1.48.7.361.163.415.252a1.779,1.779,0,0,1-.125,1.03ZM15,0A15,15,0,1,0,30,15,15,15,0,0,0,15,0Zm.036,23.6a8.68,8.68,0,0,1-4.148-1.055l-4.6,1.205,1.23-4.494A8.671,8.671,0,1,1,15.036,23.6Z" fill="#d6c545"/></svg>